<?xml version="1.0" encoding="UTF-8"?>
<svg width="24px" height="24px" viewBox="0 0 24 24" version="1.1" xmlns="http://www.w3.org/2000/svg" xmlns:xlink="http://www.w3.org/1999/xlink">
    <!-- Generator: Sketch 50.2 (55047) - http://www.bohemiancoding.com/sketch -->
    <title>ic/small/user</title>
    <desc>Created with Sketch.</desc>
    <defs>
        <path d="M12.6,16 L1.6,16 C0.639783,16 0,15.472164 0,14.422467 C0,12.120092 2.062141,10.002624 4.4,10.002624 L5,10.002624 L5,9.06557 C3.757807,8.43859 3,7.31631 3,5.96358 L3,4.37417 C3,1.91002 5.025756,0 7.6,0 C10.03996,0 12,1.87752 12,4.1755 L12,5.96358 C12,7.33842 11.2174,8.53592 10,9.08598 L10,10.002624 L10.6,10.002624 C13.00643,10.002624 15,12.086237 15,14.422467 C15,15.584464 14.25516,16 12.6,16 Z M10.6,11.002624 L9.5,11.002624 C9.22386,11.002624 9,10.778766 9,10.502624 L9,8.74503 C9,8.52945 9.13818,8.33814 9.34283,8.27038 C10.34498,7.93854 11,7.03223 11,5.96358 L11,4.1755 C11,2.43965 9.49707,1 7.6,1 C5.565316,1 4,2.47588 4,4.37417 L4,5.96358 C4,6.99975 4.624336,7.84145 5.691221,8.28304 C5.878122,8.3604 6,8.54275 6,8.74503 L6,10.502624 C6,10.778766 5.776142,11.002624 5.5,11.002624 L4.4,11.002624 C2.620438,11.002624 1,12.666538 1,14.422467 C1,14.872819 1.154154,15 1.6,15 L12.6,15 C13.77631,15 14,14.875207 14,14.422467 C14,12.628881 12.44402,11.002624 10.6,11.002624 Z" id="path-1"></path>
    </defs>
    <g id="ic/small/user" stroke="none" stroke-width="1" fill="none" fill-rule="evenodd">
        <g id="Page-1" transform="translate(5.000000, 4.000000)">
            <mask id="mask-2" fill="white">
                <use xlink:href="#path-1"></use>
            </mask>
            <g id="Clip-2"></g>
            <g id="color/white" mask="url(#mask-2)" fill="#FFFFFF">
                <g transform="translate(-5.000000, -5.000000)" id="Rectangle-3">
                    <rect x="0" y="0" width="25" height="26"></rect>
                </g>
            </g>
        </g>
    </g>
</svg>